<?xml version="1.0" encoding="utf-8"?>
<!-- Generator: Adobe Illustrator 21.0.0, SVG Export Plug-In . SVG Version: 6.00 Build 0)  -->
<svg version="1.1" id="Layer_1" xmlns="http://www.w3.org/2000/svg" xmlns:xlink="http://www.w3.org/1999/xlink" x="0px" y="0px"
	 viewBox="0 0 198.4 198.4" style="enable-background:new 0 0 198.4 198.4;" xml:space="preserve">
<g>
	<path d="M196.1,51.8h-12.8c-7.4-14.4-21.3-24.3-37-26.9c1.7-1.9,2.7-4.4,2.7-7.1c0-5.9-4.8-10.7-10.7-10.7s-10.7,4.8-10.7,10.7
		c0,2.7,1,5.2,2.7,7.1c-15.7,2.5-29.7,12.5-37,26.9H80.5v14h33.4c2.2,3.6,9.3,12.8,24.2,12.8c14.3,0,26-9.9,29.1-12.8h28.9
		L196.1,51.8L196.1,51.8z M138.4,12.2c3.1,0,5.7,2.5,5.7,5.7s-2.5,5.7-5.7,5.7s-5.7-2.5-5.7-5.7S135.3,12.2,138.4,12.2z M138.4,29.2
		c16.2,0,31.2,8.7,39.3,22.5H99.2C107.2,38,122.2,29.2,138.4,29.2z M138.2,73.5c-9.5,0-15.1-4.4-18-7.8h39.1
		C154.5,69.2,146.7,73.5,138.2,73.5z M191.1,60.8h-18.9h-60.7h-26v-4H191v4H191.1z"/>
	<path d="M121.6,76.4l-0.8,1.9c-1.3,3.1-11.8,27.2-15.4,37.4c-2.1-2.8-5.2-7.7-8.1-12.1C91,94,83.2,81.9,76.5,74.3l-0.7-0.8H5.4
		v65.6c-1.8,0.9-3,2.8-3,4.9s1.2,4,3,4.9v8.2c-1.8,0.9-3,2.8-3,4.9s1.2,4,3,4.9v24.4h45.3l0.6-1.6c0.5-1.4,12.3-32.8,17.2-53.6
		c8,10,27.7,33,39,33c9.6,0,19-14,28.8-42.7c6.9-20.4,11.4-41.1,11.5-41.3l0.5-2.4L121.6,76.4z M10.4,186.5v-19.3
		c1.9-0.9,3.2-2.8,3.2-5s-1.3-4.1-3.2-5v-8.1c1.9-0.9,3.2-2.8,3.2-5s-1.3-4.1-3.2-5V96.4l11.5,6.5l0.4,0.4c0.2-0.2,4.6-4.6,4.8-10
		c0.2-5.5-3.3-9.6-3.5-9.8l-0.2-0.3l-12.9,6.1V78.5h29.2c-1.5,8.7-6.3,37.5-9.4,51.9c-3.6,16.7-12,44.4-16.9,56.1L10.4,186.5
		L10.4,186.5z M56.3,121.6l-33.4,64.9h-3.4l33.4-64.9l-4.3-8l13-8.9l-6.1-26.2h3.1L65,106l-12.5,8.6L56.3,121.6z"/>
</g>
</svg>
