<?xml version="1.0" encoding="utf-8"?>
<!-- Generator: Adobe Illustrator 19.0.0, SVG Export Plug-In . SVG Version: 6.00 Build 0)  -->
<svg version="1.1" id="Layer_1" xmlns="http://www.w3.org/2000/svg" xmlns:xlink="http://www.w3.org/1999/xlink" x="0px" y="0px"
	 viewBox="216 673.64 169 74" enable-background="new 216 673.64 169 74" xml:space="preserve">
<g>
	<path fill="#CA3127" d="M264.449,728.312c-2.691-0.459-7.647-1.283-10.172-1.361c-3.142-0.098-13.951,0.635-16.26,0.4
		c-2.941-0.297-7.839-0.207-11.935-6.248c-2.471-3.643-3.963-8.789-2.133-16.264c1.334-5.451,6.102-10.911,8.231-13.183
		c1.428-1.523,4.729-4.506,8.223-7.516c0.939-0.81,3.68-3.331,7.225-5.489c1.943-1.184,6.568-3.234,8.025-0.734
		c1.111,1.781-3.01,5.336-5.141,7.543c-2.422,2.506-10.065,9.357-11.055,10.572c-0.391,0.48-1.174,1.349-1.039,2.303
		c0.324,2.332,2.717,2.666,4.135,1.812c1.119-0.73,10.035-9.552,13.164-14.607c0.449-0.724,3.607-4.508,2.562-7.609
		c-0.291-0.867-0.797-1.736-1.281-2.082c-2.283-1.629-6.221-0.983-8.855-0.212c-1.85,0.542-8.455,2.814-15.975,8.382
		c-3.103,2.299-4.903,4.441-6.647,6.328c-3.162,3.42-4.807,6.375-6.523,10.932c-1.203,3.198-1.451,8.575-1.406,9.652
		c0.16,3.777,0.857,6.549,2.322,9.211c1.596,2.898,4.408,6.902,6.969,8.41c1.832,1.078,4.357,2.145,6.808,2.242
		c5.998,0.244,9.67-1.203,13.777-1.762c1.727-0.234,4.941-0.242,5.928-0.24c2.471,0.006,10.162,1.125,15.217,3.445
		c3.449,1.582,5.785,3.529,6.891,4.725c1.176-0.418,6.682-1.752,7.928-2.002c-1.094-0.803-4.816-2.141-6.488-2.803
		C273.156,730.654,268.685,729.035,264.449,728.312z"/>
	<path fill="#CA3127" d="M344.301,695.975c0.338,0.17,2.385-0.968,3.592-1.842c0.416-0.216,0.785-0.457,0.857-0.764
		c0.301-0.522-0.172-3.349-0.678-4.594c-0.043-0.229-0.111-0.37-0.23-0.443c-0.055-0.074-0.109-0.132-0.162-0.147
		c-0.801-0.229-4.238,2.062-4.582,2.75S343.701,695.676,344.301,695.975z"/>
	<path fill="#CA3127" d="M371.545,720.402c0.287-0.688,11.445-20.404,11.332-21.034c-0.113-0.63-0.898-1.728-1.643-1.784
		c-0.744-0.059-8.85,3.692-9.652,3.979c0.229-0.458,0.928-1.794,1.213-2.195c0.287-0.401-1.775-1.604-2.92-1.604
		c-1.051,0-7.506,2.849-9.334,3.793c-0.658-1.892-2.543-3.696-3.545-3.75c-1.316-0.07-6.902,2.134-7.992,3.853
		c-0.504,0.795-8.568,14.363-9.584,16.854c-1.975,0.867-5.314,2.168-5.621,2.344c-0.4,0.228-1.316,0.287-0.629-0.975
		c0.297-0.543,10.852-19.31,10.852-19.941c0-0.63-1.205-2.177-2.121-2.233c-0.648-0.04-6.691,2.78-9.137,3.926
		c-0.006-1.776-0.777-3.787-1.508-3.787c-1.488,0-6.605,2.865-7.98,3.438c0.685-1.375,1.787-3.462,1.787-3.462l-4.812,1.603
		l-10.527,18.812c-3.065,0.977-5.858,2.945-6.402,2.51c-0.285-0.23,11.109-18.967,11.645-20.035
		c0.457-0.917-1.433-3.041-2.064-3.041c-0.803,0-7.848,3.608-8.648,3.608c-0.459-1.089-1.088-3.604-1.891-3.604
		c-0.801,0-6.701,3.208-7.502,3.78c0.629-1.031,1.719-3.78,1.719-3.78l-5.1,1.947l-10.705,18.895
		c-2.809,1.281-6.959,3.529-6.307,2.412c0.389-0.664,10.369-18.914,12.33-22.594c-1.603-0.457-4.582-0.4-5.898,0.115
		c-0.908,0.353-9.395,3.666-12.086,7.446c-1.254,1.76-5.111,7.597-7.109,12.096c-2.58,1.225-5.746,2.96-6.117,2.321
		c-0.424-0.734,9.293-18.16,10.572-20.078c0.688-1.031-0.934-3.138-2.092-2.838c-1.309,0.34-6.08,2.328-7.111,2.673
		c-0.596,0.198,11.863-22.673,11.863-22.673l-6.529,4.295L238.23,725.17l6.016-2.92l10.867-19.332c0,0,5.949-2.704,7.025-3.091
		c0.685-0.247-11.383,21.263-12.223,22.593c-0.516,0.816,1.074,2.791,1.934,2.75c0.695-0.033,5.539-2.594,9.055-5.301
		c-0.443,1.066-0.582,1.494-0.758,2.15c-0.346,1.297,1.375,2.979,2.522,3.094c0.853,0.086,6.629-2.234,7.789-2.922
		c0.086,1.117,0.9,2.75,2.062,2.75c0.723,0,4.402-2.275,7.105-4.395l-2.523,4.451l5.098-1.832l11.514-19.303
		c0,0,6.232-3.048,6.873-3.322c0.4-0.172,0.918,1.031,0.459,1.718c-0.457,0.688-13.805,22.798-13.805,22.798l5.5-2.521
		l11.227-19.188c0,0,5.519-2.474,6.07-2.75c0.344-0.172,0.688,0.803,0.344,1.434c-0.49,0.898-11.756,19.762-12.271,20.646
		c-0.301,0.516,0.645,2.438,1.332,2.449c1.846,0.031,5.465-2.25,9.113-4.596l-13.238,24.975l5.631-3.35l10.139-18.559
		c0,0,1.432,1.604,2.807,1.604c1.604,0,7.904-3.322,9.508-5.156c1.449-1.654,8.414-15.099,9.223-16.494
		c0.039-0.07,0.045-0.059,0.072-0.154c1.797-0.68,5.66-2.523,6.086-2.652c0.541-0.162,1.058,0,0.6,0.916
		c-0.459,0.916-10.939,19.188-11.17,20.906c-0.111,0.844,1.604,2.635,2.406,2.635c1.148,0,6.314-3.48,9.072-5.318
		c0.06,1.941,1.394,5.32,3.129,5.262c1.717-0.059,8.764-4.31,9.852-5.843c0.736-1.038,7.826-14.849,8.191-15.466
		c0.148-0.249,0.186-0.471,0.133-0.839c0,0,7.402-3.733,7.973-2.397c0.115,0.315-13.928,22.94-14.615,24.43
		c0.402-0.229,4.725-2.492,5.643-2.949c0.457-0.688,9.395-17.098,9.967-17.786c0.744-0.458,9.049-4.554,8.535-3.522
		c-0.516,1.03-11.459,20.652-12.029,21.736c-0.287,0.545,1.031,2.766,1.604,2.75c0.973-0.029,8.549-6.127,9.438-7.072
		C376.477,718.586,371.258,721.09,371.545,720.402z M271.832,718.64c-1.145,2.062-7.131,4.125-7.531,2.922
		c-0.402-1.203,7.092-13.853,8.924-16.66c1.834-2.807,9.328-5.383,8.936-4.683C281.072,702.167,272.266,717.859,271.832,718.64z
		 M329.588,701.316c-0.619,1.032-10.119,19.49-13.041,21.438c-2.92,1.947-4.15,0.457-4.781-0.201
		c0.408-0.682,7.912-14.249,10.147-18.315c0.693-1.263,6.609-3.61,7.246-3.882C329.56,700.183,329.932,700.743,329.588,701.316z
		 M358.07,702.49c-0.539,1.137-9.725,17.469-10.525,18.387c-0.803,0.916-3.537,2.893-4.512,2.662
		c-0.973-0.229-0.504-3.947-0.1-4.811c0.4-0.859,10.006-16.775,10.424-17.47c0.516-0.858,2.891-2.572,3.725-2.335
		C357.984,699.181,358.586,701.402,358.07,702.49z"/>
</g>
<g>
	<path fill="#CA3127" d="M377.855,720.863c0.139-0.315,0.328-0.589,0.567-0.821s0.517-0.414,0.835-0.546
		c0.318-0.132,0.655-0.198,1.012-0.198s0.693,0.066,1.009,0.198c0.315,0.132,0.591,0.314,0.828,0.546s0.424,0.506,0.564,0.821
		c0.139,0.316,0.209,0.656,0.209,1.023c0,0.376-0.07,0.723-0.209,1.04c-0.139,0.318-0.327,0.594-0.564,0.828
		s-0.513,0.416-0.828,0.546s-0.652,0.195-1.009,0.195s-0.695-0.065-1.012-0.195c-0.318-0.13-0.596-0.312-0.835-0.546
		c-0.239-0.234-0.428-0.51-0.567-0.828c-0.139-0.318-0.209-0.665-0.209-1.04C377.646,721.52,377.716,721.179,377.855,720.863z
		 M378.283,722.773c0.109,0.271,0.26,0.507,0.452,0.706c0.193,0.2,0.42,0.356,0.682,0.47s0.546,0.17,0.852,0.17
		c0.302,0,0.582-0.057,0.842-0.17c0.26-0.114,0.486-0.27,0.678-0.47c0.193-0.199,0.343-0.435,0.452-0.706s0.164-0.567,0.164-0.887
		c0-0.311-0.055-0.601-0.164-0.87c-0.109-0.269-0.26-0.502-0.452-0.699s-0.419-0.353-0.678-0.466c-0.26-0.114-0.54-0.17-0.842-0.17
		c-0.306,0-0.59,0.057-0.852,0.17c-0.262,0.114-0.489,0.269-0.682,0.466s-0.343,0.43-0.452,0.699
		c-0.109,0.269-0.164,0.559-0.164,0.87C378.119,722.206,378.174,722.502,378.283,722.773z M380.43,720.376
		c0.362,0,0.63,0.072,0.804,0.216c0.174,0.144,0.261,0.362,0.261,0.654c0,0.274-0.076,0.474-0.23,0.602
		c-0.153,0.128-0.343,0.203-0.57,0.226l0.87,1.343h-0.508l-0.828-1.308h-0.501v1.308h-0.473v-3.041H380.43z M380.221,721.726
		c0.107,0,0.208-0.004,0.303-0.01c0.095-0.007,0.18-0.027,0.254-0.059c0.074-0.032,0.133-0.082,0.178-0.15
		c0.044-0.067,0.066-0.161,0.066-0.282c0-0.102-0.02-0.183-0.059-0.243s-0.09-0.107-0.153-0.139
		c-0.063-0.032-0.135-0.055-0.216-0.066c-0.081-0.012-0.161-0.017-0.24-0.017h-0.626v0.967L380.221,721.726L380.221,721.726z"/>
</g>
</svg>
