<?xml version="1.0" encoding="utf-8"?>
<!-- Generator: Adobe Illustrator 19.0.0, SVG Export Plug-In . SVG Version: 6.00 Build 0)  -->
<svg version="1.1" id="Layer_1" xmlns="http://www.w3.org/2000/svg" xmlns:xlink="http://www.w3.org/1999/xlink" x="0px" y="0px"
	 viewBox="208.799 329.24 637.401 184.3" enable-background="new 208.799 329.24 637.401 184.3" xml:space="preserve">
<g>
	<path fill="#FFFFFF" d="M545.799,397.94l-4.6,21.7h35.2l-19.2,91.4h25.8l19.2-91.4h33.6l4.6-21.7H545.799z"/>
	<g>
		<path fill="#FFFFFF" d="M428.899,511.04h-87.4l0.1-0.6l23.5-112.5h86.6l-4.4,21.7h-61l-4.8,23h56.4l-4.3,20.2h-56.4l-5.6,26.5
			h61.9L428.899,511.04z"/>
	</g>
	<g>
		<path fill="#FFFFFF" d="M486.899,513.54c-15.7,0-27.7-3.3-35.4-9.7c-7.8-6.5-11.7-16.7-11.7-30.5v-0.5h24.4v0.5
			c-0.2,3.9,0.3,7.2,1.4,9.7l0,0c1.1,2.6,2.7,4.6,4.9,6.1c2.1,1.5,4.7,2.6,7.7,3.3c3,0.7,6.3,1,9.8,1c2.5,0,5-0.3,7.4-0.9
			c2.5-0.6,4.7-1.5,6.7-2.8c2-1.2,3.6-2.8,4.9-4.7c1.2-1.9,1.9-4.2,1.9-6.9c0-2.6-0.8-4.7-2.4-6.3c-1.6-1.7-3.8-3.1-6.4-4.4
			c-2.6-1.2-5.7-2.3-9-3.3c-3.4-0.9-6.9-1.9-10.3-3c-3.6-1-7.1-2.3-10.4-3.8c-3.4-1.5-6.5-3.4-9.2-5.7c-2.7-2.3-4.9-5.2-6.6-8.6
			c-1.6-3.4-2.5-7.6-2.5-12.5c0-6.3,1.3-11.8,4-16.3c2.6-4.4,6.1-8.1,10.4-10.9c4.2-2.8,9-4.9,14.4-6.2c5.3-1.3,10.8-2,16.2-2
			c5.8,0,11.3,0.7,16.4,2c5.1,1.3,9.7,3.5,13.5,6.4c3.9,3,7,6.8,9.2,11.4c2.3,4.6,3.4,10.2,3.4,16.8v0.5h-24.4v-0.5
			c0.1-3-0.3-5.6-1.3-7.7s-2.3-3.8-4.1-5.1c-1.8-1.3-3.9-2.3-6.3-2.8c-4.5-1-9.6-1.2-14.8-0.2c-2.3,0.5-4.4,1.2-6.2,2.3
			c-1.8,1.1-3.3,2.5-4.4,4.2s-1.6,3.8-1.6,6.3c0,2.6,0.9,4.7,2.9,6.5s4.4,3.3,7.2,4.5c2.8,1.2,5.8,2.1,8.8,2.8
			c3,0.7,5.5,1.2,7.4,1.6c4.4,1.2,8.5,2.5,12.2,4c3.7,1.5,6.9,3.5,9.6,6c2.7,2.4,4.8,5.5,6.3,9s2.2,7.8,2.2,12.9
			c0,6.8-1.4,12.6-4.2,17.4c-2.8,4.8-6.4,8.7-10.8,11.6c-4.4,3-9.4,5.1-14.8,6.4C497.699,512.94,492.199,513.54,486.899,513.54z"/>
	</g>
	<g>
		<path fill="#FFFFFF" d="M676.999,513.54c-16,0-28.5-4.3-37.2-12.9c-8.7-8.5-13.1-21-13.1-37.1c0-9.1,1.4-17.9,4.3-26.1
			c2.8-8.2,7-15.5,12.3-21.7c5.3-6.3,11.9-11.3,19.5-15s16.3-5.5,25.7-5.5c7.6,0,14.5,1,20.7,3.1s11.6,5.2,15.9,9.3
			c4.3,4.1,7.7,9.2,10.1,15.3c2.4,6,3.6,13,3.6,20.9c0,9.2-1.4,18.1-4.1,26.5c-2.7,8.4-6.7,15.9-11.9,22.3s-11.7,11.6-19.3,15.3
			C695.699,511.74,686.899,513.54,676.999,513.54z M688.599,417.04c-6.2,0-11.6,1.4-16.1,4.2c-4.6,2.8-8.4,6.5-11.3,11
			s-5.2,9.6-6.6,15.1c-1.4,5.5-2.2,11-2.2,16.3c0,3.8,0.5,7.5,1.5,10.9l0,0c1,3.4,2.5,6.4,4.5,9s4.6,4.7,7.7,6.2
			c3.1,1.5,6.9,2.3,11.3,2.3c5.9,0,11.2-1.4,15.6-4.2c4.4-2.8,8.2-6.5,11.2-11s5.3-9.5,6.8-15s2.3-10.9,2.3-16.2
			c0-3.9-0.4-7.6-1.3-11.1c-0.9-3.4-2.3-6.5-4.2-9s-4.5-4.6-7.5-6.1C696.999,417.84,693.099,417.04,688.599,417.04z"/>
	</g>
	<g>
		<path fill="#FFFFFF" d="M832.999,511.04h-25.1l-0.1-0.4c-0.3-1.4-0.6-2.7-0.8-3.9c-0.2-1.2-0.3-2.5-0.3-3.8
			c0-3.8,0.2-7.6,0.6-11.4c0.4-3.8,0.6-7.6,0.6-11.3c0-2.6-0.4-4.8-1.1-6.5c-0.7-1.6-1.8-3-3.1-4s-3-1.7-4.9-2
			c-2-0.4-4.1-0.5-6.5-0.5h-22.8l-9.3,43.8h-25.5l0.1-0.6l23.5-112.5h53.9c5-0.1,9.7,0.4,13.9,1.3c4.2,1,7.8,2.7,10.8,5.1
			s5.3,5.6,6.9,9.4c1.6,3.8,2.4,8.5,2.4,14c0,3.8-0.6,7.5-1.9,11c-1.3,3.5-3.1,6.6-5.4,9.3c-2.3,2.7-5.1,5-8.3,6.8
			c-2.8,1.6-5.9,2.7-9.2,3.3c4,1.6,6.8,4.1,8.3,7.4c1.6,3.7,2.4,7.8,2.4,12.4c0,2.5-0.1,5.5-0.4,9.1c-0.3,3.5-0.4,7-0.4,10.4
			c0,2.5,0.1,4.9,0.3,7.1s0.6,4.1,1.2,5.8L832.999,511.04z M773.399,448.74h22.2c3.3,0,6.5-0.3,9.5-1s5.6-1.7,7.9-3.1
			c2.3-1.4,4.1-3.2,5.5-5.3c1.4-2.2,2-4.8,2-7.8c0-2.9-0.5-5.3-1.4-7.1c-0.9-1.7-2.2-3.1-3.8-4s-3.5-1.5-5.6-1.8
			c-2.2-0.3-4.5-0.5-6.8-0.5h-23L773.399,448.74z"/>
	</g>
	<path fill="#FFFFFF" d="M402.499,373.94h-12.8c-7.4-14.4-21.3-24.3-37-26.9c1.7-1.9,2.7-4.4,2.7-7.1c0-5.9-4.8-10.7-10.7-10.7
		s-10.7,4.8-10.7,10.7c0,2.7,1,5.2,2.7,7.1c-15.7,2.5-29.7,12.5-37,26.9h-12.8v14h33.4c2.2,3.6,9.3,12.8,24.2,12.8
		c14.3,0,26-9.9,29.1-12.8h28.9V373.94z M344.799,334.34c3.1,0,5.7,2.5,5.7,5.7s-2.5,5.7-5.7,5.7s-5.7-2.5-5.7-5.7
		S341.699,334.34,344.799,334.34z M344.799,351.34c16.2,0,31.2,8.7,39.3,22.5h-78.5C313.599,360.14,328.599,351.34,344.799,351.34z
		 M344.599,395.64c-9.5,0-15.1-4.4-18-7.8h39.1C360.899,391.34,353.099,395.64,344.599,395.64z M397.499,382.94h-18.9h-60.7h-26v-4
		h105.5v4H397.499z"/>
	<path fill="#FFFFFF" d="M327.999,398.54l-0.8,1.9c-1.3,3.1-11.8,27.2-15.4,37.4c-2.1-2.8-5.2-7.7-8.1-12.1
		c-6.3-9.6-14.1-21.7-20.8-29.3l-0.7-0.8h-70.4v65.6c-1.8,0.9-3,2.8-3,4.9s1.2,4,3,4.9v8.2c-1.8,0.9-3,2.8-3,4.9s1.2,4,3,4.9v24.4
		h45.3l0.6-1.6c0.5-1.4,12.3-32.8,17.2-53.6c8,10,27.7,33,39,33c9.6,0,19-14,28.8-42.7c6.9-20.4,11.4-41.1,11.5-41.3l0.5-2.4
		L327.999,398.54z M216.799,508.64v-19.3c1.9-0.9,3.2-2.8,3.2-5s-1.3-4.1-3.2-5v-8.1c1.9-0.9,3.2-2.8,3.2-5s-1.3-4.1-3.2-5v-42.7
		l11.5,6.5l0.4,0.4c0.2-0.2,4.6-4.6,4.8-10c0.2-5.5-3.3-9.6-3.5-9.8l-0.2-0.3l-12.9,6.1v-10.8h29.2c-1.5,8.7-6.3,37.5-9.4,51.9
		c-3.6,16.7-12,44.4-16.9,56.1L216.799,508.64L216.799,508.64z M262.699,443.74l-33.4,64.9h-3.4l33.4-64.9l-4.3-8l13-8.9l-6.1-26.2
		h3.1l6.4,27.5l-12.5,8.6L262.699,443.74z"/>
</g>
</svg>
