<?xml version="1.0" encoding="utf-8"?>
<!-- Generator: Adobe Illustrator 21.1.0, SVG Export Plug-In . SVG Version: 6.00 Build 0)  -->
<svg version="1.1" id="Layer_1" xmlns="http://www.w3.org/2000/svg" xmlns:xlink="http://www.w3.org/1999/xlink" x="0px" y="0px"
	 viewBox="0 0 665.8 201.5" style="enable-background:new 0 0 665.8 201.5;" xml:space="preserve">
<style type="text/css">
	.st0{fill:#FFFFFF;}
	.st1{fill:#231F20;}
</style>
<path class="st0" d="M648.1,163.6c-3,0-5.8,0.7-8.2,2c0.2-3.1,0.3-5.9,0.3-8.2c0-5.7-1-11-3.1-15.8c-0.2-0.4-0.4-0.8-0.6-1.2
	c3.2-2.1,6-4.5,8.4-7.3c3-3.5,5.4-7.5,7-12c1.6-4.4,2.4-9.1,2.4-13.9c0-6.6-1-12.4-3-17.3c-2.1-5.2-5.3-9.4-9.4-12.7
	c-4-3.2-8.7-5.5-14.1-6.8c-4.4-1.1-9.3-1.6-14.4-1.6c-0.5,0-1,0-1.5,0H551l-7,33.8c-0.4-1.2-0.8-2.3-1.2-3.4
	c-2.8-7.2-6.9-13.3-12.1-18.3c-5.2-5-11.7-8.8-19.1-11.2c-7.1-2.3-14.9-3.5-23.4-3.5c-10.7,0-20.6,2.2-29.4,6.4
	c-3.6,1.7-7,3.8-10.2,6.1l2.1-9.8h-112l-2.5,11.5c-1.4-1.5-2.9-2.8-4.5-4c-4.8-3.7-10.3-6.3-16.6-7.9c-5.8-1.5-12-2.2-18.5-2.2
	c-6.1,0-12.3,0.7-18.3,2.2c-6.3,1.6-12,4-17,7.4c-0.4,0.3-0.7,0.5-1.1,0.8l1.6-7.7h-51.1V44.7h-16.4c-7.2-11.4-18.2-19.9-30.8-24.3
	c0-0.4,0.1-0.8,0.1-1.1c0-10.6-8.6-19.2-19.2-19.2s-19.2,8.6-19.2,19.2c0,0.4,0,0.8,0.1,1.1c-12.6,4.3-23.5,12.9-30.8,24.3H78.2
	v21.8H3v70.4c-1.9,2.4-3,5.4-3,8.7s1.1,6.3,3,8.7v0.8c-1.9,2.4-3,5.4-3,8.7s1.1,6.3,3,8.7v29.1h59.7l2.7-7.1
	c0.3-0.9,7.6-20.3,13.2-38.9c0.7,0.8,1.4,1.5,2.1,2.2c17.9,19.2,27,21.6,32.9,21.6c9.7,0,18-7,26-22.2l-8.6,41.2l-0.1,0.6h104.7
	l3.5-16.5c1.9,2.8,4.2,5.2,6.8,7.4c9.3,7.7,23.1,11.7,40.8,11.7c6,0,12.2-0.7,18.3-2.2c6.5-1.6,12.4-4.1,17.6-7.6
	c5.4-3.7,10-8.5,13.4-14.4c3.6-6.1,5.4-13.4,5.4-21.7c0-6.2-1-11.7-2.9-16.2c-2-4.7-4.8-8.7-8.5-12c-3.2-2.8-6.9-5.2-11-7.1h28.9v-9
	c0-1.3-0.1-2.5-0.1-3.7h18l-19.2,91.4h43.2l19.2-91.4h16.5c-1,2.1-1.8,4.3-2.6,6.6c-3.1,9.1-4.7,18.8-4.7,28.9
	c0,18.4,5.3,33,15.6,43.2c10.3,10.1,24.8,15.3,43.1,15.3c11.2,0,21.3-2.2,30.1-6.5c8.3-4.1,15.5-9.7,21.4-16.6l-4.2,20l-0.1,0.6
	h42.9l9.3-43.8H592c1.8,0,3.5,0.1,5,0.4c0.8,0.1,1.2,0.4,1.4,0.5c0.1,0.1,0.2,0.2,0.5,0.7c0,0.1,0.4,0.9,0.4,2.9
	c0,3.4-0.2,6.9-0.6,10.4c-0.5,4.1-0.7,8.3-0.7,12.4c0,1.8,0.2,3.5,0.4,5.2c0.2,1.3,0.5,2.8,0.9,4.3l1.6,7H645l-0.1-0.3
	c1.1,0.2,2.1,0.3,3.3,0.3c9.8,0,17.7-7.9,17.7-17.7S657.9,163.6,648.1,163.6z M109.5,99c-4.9-7.5-10.6-16.1-16.1-23.2h22.4
	c0.7,0.9,1.5,1.7,2.4,2.6C116.3,83,112.8,91.1,109.5,99z M181.8,160.2l2-9.5H231v2c0,2.6,0.1,5.1,0.4,7.5H181.8z M191.7,113.6l1.3-6
	h50.3c0,0.8-0.1,1.6-0.1,2.5c0,1.2,0.1,2.4,0.1,3.6H191.7z M241.7,143.7l4.1-19.2c0.2,0.6,0.5,1.1,0.8,1.7c2.2,4.4,5.1,8.3,8.7,11.4
	c2.8,2.4,5.9,4.5,9.3,6.2H241.7z M299.4,159.9c-0.6,0.9-1.3,1.6-2.2,2.1c-1.2,0.8-2.7,1.4-4.3,1.8c-1.8,0.4-3.6,0.7-5.4,0.7
	c-2.9,0-5.6-0.3-7.9-0.8c-1.8-0.4-3.4-1.1-4.6-1.9c-0.9-0.6-1.5-1.4-2-2.6c-0.4-0.9-0.9-2.7-0.7-5.9l0.3-6.1
	c1.7,0.6,3.5,1.2,5.2,1.7c3.5,1.1,7,2.1,10.5,3c2.9,0.8,5.5,1.7,7.7,2.8c1.6,0.8,2.9,1.6,3.8,2.5c0,0.1,0,0.2,0,0.5
	C299.9,158.6,299.7,159.4,299.4,159.9z M306.2,115.9c-0.5-0.1-1.1-0.3-1.6-0.4l-0.3-0.1c-1.9-0.4-4.3-1-7.4-1.6
	c-2.5-0.6-5-1.4-7.4-2.3c-1.9-0.8-3.6-1.8-4.8-2.9c0,0,0,0-0.1-0.1c0,0,0,0,0-0.1c0-0.9,0.1-1.5,0.3-1.7c0.4-0.6,0.9-1,1.5-1.4
	c1-0.6,2.2-1,3.6-1.3c4-0.8,7.9-0.7,11.2,0.1c1.3,0.3,2.3,0.7,3.2,1.4c0.6,0.5,1.1,1,1.4,1.8c0.4,0.8,0.6,2.2,0.5,3.9L306.2,115.9z
	 M502.3,138.9c-1.3,4.6-3.2,8.8-5.6,12.5c-2.4,3.5-5.2,6.3-8.7,8.6c-3,2-6.6,2.9-11,2.9c-3.1,0-5.6-0.5-7.6-1.4
	c-1.9-1-3.5-2.2-4.7-3.7c-1.4-1.8-2.4-3.8-3.1-6.2c-0.8-2.6-1.1-5.5-1.1-8.5c0-4.5,0.6-9.3,1.9-14.1c1.2-4.6,3.1-8.9,5.5-12.6
	c2.3-3.5,5.1-6.2,8.7-8.4c3.2-2,7.1-3,11.7-3c3.2,0,5.7,0.5,7.6,1.4c1.9,1,3.4,2.2,4.5,3.7c1.3,1.7,2.2,3.6,2.8,6
	c0.7,2.8,1.1,5.8,1.1,9C504.3,129.4,503.6,134.1,502.3,138.9z M610.9,114.1c-0.7,1-1.5,1.9-2.7,2.6c-1.5,0.9-3.3,1.6-5.4,2.1
	c-2.4,0.5-4.9,0.8-7.6,0.8h-11.7l2.8-13.5h16.1c2,0,3.9,0.1,5.6,0.4c1.1,0.2,2,0.4,2.7,0.8c0.1,0,0.3,0.1,0.5,0.6c0,0,0.4,0.8,0.4,3
	C611.7,112.2,611.4,113.3,610.9,114.1z"/>
<g>
	<path d="M345.6,77.3L341,99h35.2L357,190.4h25.8L402,99h33.6l4.6-21.7H345.6z"/>
	<path d="M228.7,190.4h-87.4l0.1-0.6l23.5-112.5h86.6L247.1,99h-61l-4.8,23h56.4l-4.3,20.2H177l-5.6,26.5h61.9L228.7,190.4z"/>
	<path d="M286.7,192.9c-15.7,0-27.7-3.3-35.4-9.7c-7.8-6.5-11.7-16.7-11.7-30.5v-0.5H264v0.5c-0.2,3.9,0.3,7.2,1.4,9.7l0,0
		c1.1,2.6,2.7,4.6,4.9,6.1c2.1,1.5,4.7,2.6,7.7,3.3c3,0.7,6.3,1,9.8,1c2.5,0,5-0.3,7.4-0.9c2.5-0.6,4.7-1.5,6.7-2.8
		c2-1.2,3.6-2.8,4.9-4.7c1.2-1.9,1.9-4.2,1.9-6.9c0-2.6-0.8-4.7-2.4-6.3c-1.6-1.7-3.8-3.1-6.4-4.4c-2.6-1.2-5.7-2.3-9-3.3
		c-3.4-0.9-6.9-1.9-10.3-3c-3.6-1-7.1-2.3-10.4-3.8c-3.4-1.5-6.5-3.4-9.2-5.7c-2.7-2.3-4.9-5.2-6.6-8.6c-1.6-3.4-2.5-7.6-2.5-12.5
		c0-6.3,1.3-11.8,4-16.3c2.6-4.4,6.1-8.1,10.4-10.9c4.2-2.8,9-4.9,14.4-6.2c5.3-1.3,10.8-2,16.2-2c5.8,0,11.3,0.7,16.4,2
		c5.1,1.3,9.7,3.5,13.5,6.4c3.9,3,7,6.8,9.2,11.4c2.3,4.6,3.4,10.2,3.4,16.8v0.5H315v-0.5c0.1-3-0.3-5.6-1.3-7.7s-2.3-3.8-4.1-5.1
		c-1.8-1.3-3.9-2.3-6.3-2.8c-4.5-1-9.6-1.2-14.8-0.2c-2.3,0.5-4.4,1.2-6.2,2.3c-1.8,1.1-3.3,2.5-4.4,4.2s-1.6,3.8-1.6,6.3
		c0,2.6,0.9,4.7,2.9,6.5s4.4,3.3,7.2,4.5c2.8,1.2,5.8,2.1,8.8,2.8c3,0.7,5.5,1.2,7.4,1.6c4.4,1.2,8.5,2.5,12.2,4
		c3.7,1.5,6.9,3.5,9.6,6c2.7,2.4,4.8,5.5,6.3,9s2.2,7.8,2.2,12.9c0,6.8-1.4,12.6-4.2,17.4s-6.4,8.7-10.8,11.6
		c-4.4,3-9.4,5.1-14.8,6.4C297.5,192.3,292,192.9,286.7,192.9z"/>
	<path d="M476.8,192.9c-16,0-28.5-4.3-37.2-12.9c-8.7-8.5-13.1-21-13.1-37.1c0-9.1,1.4-17.9,4.3-26.1c2.8-8.2,7-15.5,12.3-21.7
		c5.3-6.3,11.9-11.3,19.5-15s16.3-5.5,25.7-5.5c7.6,0,14.5,1,20.7,3.1c6.2,2.1,11.6,5.2,15.9,9.3c4.3,4.1,7.7,9.2,10.1,15.3
		c2.4,6,3.6,13,3.6,20.9c0,9.2-1.4,18.1-4.1,26.5c-2.7,8.4-6.7,15.9-11.9,22.3s-11.7,11.6-19.3,15.3
		C495.5,191.1,486.7,192.9,476.8,192.9z M488.4,96.4c-6.2,0-11.6,1.4-16.1,4.2c-4.6,2.8-8.4,6.5-11.3,11c-2.9,4.5-5.2,9.6-6.6,15.1
		c-1.4,5.5-2.2,11-2.2,16.3c0,3.8,0.5,7.5,1.5,10.9l0,0c1,3.4,2.5,6.4,4.5,9s4.6,4.7,7.7,6.2c3.1,1.5,6.9,2.3,11.3,2.3
		c5.9,0,11.2-1.4,15.6-4.2c4.4-2.8,8.2-6.5,11.2-11s5.3-9.5,6.8-15c1.5-5.5,2.3-10.9,2.3-16.2c0-3.9-0.4-7.6-1.3-11.1
		c-0.9-3.4-2.3-6.5-4.2-9s-4.5-4.6-7.5-6.1C496.8,97.2,492.9,96.4,488.4,96.4z"/>
	<path d="M632.8,190.4h-25.1l-0.1-0.4c-0.3-1.4-0.6-2.7-0.8-3.9c-0.2-1.2-0.3-2.5-0.3-3.8c0-3.8,0.2-7.6,0.6-11.4
		c0.4-3.8,0.6-7.6,0.6-11.3c0-2.6-0.4-4.8-1.1-6.5c-0.7-1.6-1.8-3-3.1-4s-3-1.7-4.9-2c-2-0.4-4.1-0.5-6.5-0.5h-22.8l-9.3,43.8h-25.5
		l0.1-0.6l23.5-112.5H612c5-0.1,9.7,0.4,13.9,1.3c4.2,1,7.8,2.7,10.8,5.1s5.3,5.6,6.9,9.4c1.6,3.8,2.4,8.5,2.4,14
		c0,3.8-0.6,7.5-1.9,11c-1.3,3.5-3.1,6.6-5.4,9.3c-2.3,2.7-5.1,5-8.3,6.8c-2.8,1.6-5.9,2.7-9.2,3.3c4,1.6,6.8,4.1,8.3,7.4
		c1.6,3.7,2.4,7.8,2.4,12.4c0,2.5-0.1,5.5-0.4,9.1c-0.3,3.5-0.4,7-0.4,10.4c0,2.5,0.1,4.9,0.3,7.1s0.6,4.1,1.2,5.8L632.8,190.4z
		 M573.2,128.1h22.2c3.3,0,6.5-0.3,9.5-1s5.6-1.7,7.9-3.1c2.3-1.4,4.1-3.2,5.5-5.3c1.4-2.2,2-4.8,2-7.8c0-2.9-0.5-5.3-1.4-7.1
		c-0.9-1.7-2.2-3.1-3.8-4s-3.5-1.5-5.6-1.8c-2.2-0.3-4.5-0.5-6.8-0.5h-23L573.2,128.1z"/>
	<path d="M202.3,53.3h-12.8c-7.4-14.4-21.3-24.3-37-26.9c1.7-1.9,2.7-4.4,2.7-7.1c0-5.9-4.8-10.7-10.7-10.7s-10.7,4.8-10.7,10.7
		c0,2.7,1,5.2,2.7,7.1c-15.7,2.5-29.7,12.5-37,26.9H86.7v14h33.4c2.2,3.6,9.3,12.8,24.2,12.8c14.3,0,26-9.9,29.1-12.8h28.9
		L202.3,53.3L202.3,53.3z M144.6,13.7c3.1,0,5.7,2.5,5.7,5.7s-2.5,5.7-5.7,5.7s-5.7-2.5-5.7-5.7S141.5,13.7,144.6,13.7z M144.6,30.7
		c16.2,0,31.2,8.7,39.3,22.5h-78.5C113.4,39.5,128.4,30.7,144.6,30.7z M144.4,75c-9.5,0-15.1-4.4-18-7.8h39.1
		C160.7,70.7,152.9,75,144.4,75z M197.3,62.3h-18.9h-60.7h-26v-4h105.5v4H197.3z"/>
	<path d="M127.8,77.9l-0.8,1.9c-1.3,3.1-11.8,27.2-15.4,37.4c-2.1-2.8-5.2-7.7-8.1-12.1c-6.3-9.6-14.1-21.7-20.8-29.3L82,75H11.6
		v65.6c-1.8,0.9-3,2.8-3,4.9s1.2,4,3,4.9v8.2c-1.8,0.9-3,2.8-3,4.9s1.2,4,3,4.9v24.4h45.3l0.6-1.6c0.5-1.4,12.3-32.8,17.2-53.6
		c8,10,27.7,33,39,33c9.6,0,19-14,28.8-42.7c6.9-20.4,11.4-41.1,11.5-41.3l0.5-2.4L127.8,77.9z M16.6,188v-19.3
		c1.9-0.9,3.2-2.8,3.2-5s-1.3-4.1-3.2-5v-8.1c1.9-0.9,3.2-2.8,3.2-5s-1.3-4.1-3.2-5V97.9l11.5,6.5l0.4,0.4c0.2-0.2,4.6-4.6,4.8-10
		c0.2-5.5-3.3-9.6-3.5-9.8l-0.2-0.3l-12.9,6.1V80h29.2c-1.5,8.7-6.3,37.5-9.4,51.9c-3.6,16.7-12,44.4-16.9,56.1L16.6,188L16.6,188z
		 M62.5,123.1L29.1,188h-3.4l33.4-64.9l-4.3-8l13-8.9L61.7,80h3.1l6.4,27.5l-12.5,8.6L62.5,123.1z"/>
</g>
<g>
	<path class="st1" d="M639.5,177.6c0.5-1.1,1.2-2.1,2-2.9c0.9-0.8,1.8-1.5,3-1.9c1.1-0.5,2.3-0.7,3.6-0.7c1.3,0,2.5,0.2,3.6,0.7
		c1.1,0.5,2.1,1.1,3,1.9c0.8,0.8,1.5,1.8,2,2.9c0.5,1.1,0.7,2.3,0.7,3.7c0,1.3-0.2,2.6-0.7,3.7c-0.5,1.1-1.2,2.1-2,3
		c-0.8,0.8-1.8,1.5-3,1.9c-1.1,0.5-2.3,0.7-3.6,0.7c-1.3,0-2.5-0.2-3.6-0.7c-1.1-0.5-2.1-1.1-3-1.9c-0.9-0.8-1.5-1.8-2-3
		c-0.5-1.1-0.7-2.4-0.7-3.7C638.8,180,639.1,178.7,639.5,177.6z M641.1,184.4c0.4,1,0.9,1.8,1.6,2.5c0.7,0.7,1.5,1.3,2.4,1.7
		c0.9,0.4,1.9,0.6,3,0.6c1.1,0,2.1-0.2,3-0.6c0.9-0.4,1.7-1,2.4-1.7c0.7-0.7,1.2-1.6,1.6-2.5c0.4-1,0.6-2,0.6-3.2
		c0-1.1-0.2-2.1-0.6-3.1c-0.4-1-0.9-1.8-1.6-2.5c-0.7-0.7-1.5-1.3-2.4-1.7c-0.9-0.4-1.9-0.6-3-0.6c-1.1,0-2.1,0.2-3,0.6
		c-0.9,0.4-1.7,1-2.4,1.7c-0.7,0.7-1.2,1.5-1.6,2.5c-0.4,1-0.6,2-0.6,3.1C640.5,182.4,640.7,183.5,641.1,184.4z M648.7,175.9
		c1.3,0,2.2,0.3,2.9,0.8c0.6,0.5,0.9,1.3,0.9,2.3c0,1-0.3,1.7-0.8,2.1c-0.5,0.5-1.2,0.7-2,0.8l3.1,4.8H651l-3-4.7h-1.8v4.7h-1.7
		v-10.9H648.7z M648,180.7c0.4,0,0.7,0,1.1,0c0.3,0,0.6-0.1,0.9-0.2c0.3-0.1,0.5-0.3,0.6-0.5c0.2-0.2,0.2-0.6,0.2-1
		c0-0.4-0.1-0.7-0.2-0.9c-0.1-0.2-0.3-0.4-0.5-0.5c-0.2-0.1-0.5-0.2-0.8-0.2c-0.3,0-0.6-0.1-0.9-0.1h-2.2v3.5H648z"/>
</g>
</svg>
