<?xml version="1.0" encoding="utf-8"?>
<!-- Generator: Adobe Illustrator 19.0.0, SVG Export Plug-In . SVG Version: 6.00 Build 0)  -->
<svg version="1.1" id="Layer_1" xmlns="http://www.w3.org/2000/svg" xmlns:xlink="http://www.w3.org/1999/xlink" x="0px" y="0px"
	 viewBox="200.3 320.64 654.401 201.501" enable-background="new 200.3 320.64 654.401 201.501" xml:space="preserve">
<g>
	<polygon fill="#FFFFFF" points="546.7,519.44 565.9,428.04 530.7,428.04 538.9,389.34 650.9,389.34 642.7,428.04 609.1,428.04 
		589.9,519.44 	"/>
	<polygon fill="#FFFFFF" points="331.5,519.44 333.2,508.74 358.2,389.34 462.1,389.34 454.3,428.04 393.2,428.04 392,434.04 
		448.4,434.04 440.5,471.24 384.1,471.24 382.1,480.74 444,480.74 435.8,519.44 	"/>
	<path fill="#FFFFFF" d="M486.9,521.94c-17.8,0-31.5-3.9-40.8-11.7c-9.8-8.2-14.8-20.6-14.8-37v-9h34c-3.5-1.7-6.7-3.8-9.6-6.2
		c-3.5-3-6.5-6.8-8.7-11.3l-0.1-0.2c-2.2-4.7-3.3-10.1-3.3-16.1c0-8,1.8-14.9,5.2-20.7c3.3-5.5,7.7-10.2,13.1-13.7
		c5-3.3,10.8-5.8,17-7.3c6-1.5,12.2-2.2,18.2-2.2c6.4,0,12.6,0.8,18.5,2.3c6.2,1.6,11.8,4.2,16.6,7.9c5,3.9,8.9,8.7,11.7,14.4
		c2.8,5.7,4.3,12.6,4.3,20.5v9h-28.9c4.1,1.8,7.8,4.2,11,7.1c3.5,3.2,6.4,7.2,8.4,11.9c1.9,4.5,2.9,9.8,2.9,16.2
		c0,8.3-1.8,15.6-5.4,21.7c-3.5,6-8,10.8-13.4,14.4c-5.1,3.5-10.9,6-17.4,7.6C499.5,521.14,493.3,521.94,486.9,521.94z
		 M472.7,473.44v0.2c-0.2,3.5,0.4,5.2,0.7,5.8v0.1c0.5,1.1,1,1.8,1.9,2.4l0.2,0.1c1.1,0.8,2.8,1.5,4.7,1.9c2.2,0.5,4.9,0.8,7.9,0.8
		c1.8,0,3.6-0.2,5.3-0.6c1.7-0.4,3-0.9,4.1-1.7l0.1-0.1l0.1-0.1c0.8-0.5,1.5-1.2,2.2-2.1c0.3-0.6,0.5-1.3,0.5-2.2c0-0.2,0-0.3,0-0.4
		l-0.1-0.1c-0.7-0.8-2-1.6-3.9-2.6c-2-0.9-4.6-1.8-7.6-2.8c-3.8-1-7.3-2-10.4-3c-1.9-0.5-3.8-1.1-5.6-1.8v6.2H472.7z M485.1,428.84
		c1.3,1.2,2.9,2.2,4.9,3c2.1,0.9,4.6,1.7,7.4,2.3c2.3,0.5,4.3,1,6,1.3l1.5,0.3c0,0,1.4,0.4,1.9,0.5v-4.8v-0.1
		c0.1-2.3-0.3-3.4-0.5-3.8c-0.5-1.1-1-1.6-1.4-1.9c-1-0.7-2-1.1-3.1-1.4h-0.1c-2-0.4-4-0.7-6-0.7c-1.8,0-3.5,0.2-5.2,0.5
		c-1.6,0.3-2.7,0.7-3.5,1.2s-1.3,1-1.7,1.6c0,0-0.2,0.4-0.2,1.7C485,428.64,485,428.74,485.1,428.84
		C485,428.74,485.1,428.74,485.1,428.84z"/>
	<path fill="#FFFFFF" d="M677,521.94c-18.3,0-32.9-5.2-43.2-15.4c-10.4-10.1-15.6-24.6-15.6-43.1c0-10.2,1.6-20,4.8-28.9
		c3.1-9,7.7-17.2,13.9-24.4c5.9-7.1,13.4-12.8,22.2-17.1c8.7-4.2,18.6-6.4,29.4-6.4c8.6,0,16.5,1.2,23.4,3.5
		c7.5,2.5,13.9,6.3,19,11.2c5.2,5,9.3,11.2,12.1,18.3c2.8,6.9,4.2,15,4.2,24c0,10-1.5,19.8-4.5,29.1c-3,9.4-7.5,17.8-13.4,25.1
		c-6.1,7.5-13.5,13.4-22.2,17.6C698.3,519.84,688.4,521.94,677,521.94z M688.6,425.44c-4.6,0-8.5,1-11.6,2.9c-3.6,2.2-6.4,5-8.6,8.4
		c-2.5,3.9-4.4,8.2-5.5,12.6c-1.3,5.1-1.9,9.8-1.9,14.2c0,3,0.4,5.9,1.2,8.5c0.7,2.4,1.7,4.4,3.1,6.2c1.2,1.6,2.8,2.8,4.7,3.7
		c2,0.9,4.6,1.5,7.6,1.5c4.3,0,8-1,11-2.9c3.5-2.2,6.4-5.1,8.7-8.5c2.5-3.8,4.4-8,5.7-12.5c1.3-4.9,2-9.6,2-14c0-3.3-0.3-6.3-1-9
		c-0.6-2.4-1.6-4.4-2.7-6c-1.1-1.4-2.6-2.7-4.5-3.6C694.4,425.94,691.8,425.44,688.6,425.44z"/>
	<path fill="#FFFFFF" d="M801.3,519.44l-1.7-7l-0.2-1c-0.2-1.1-0.5-2.3-0.7-3.4c-0.3-1.7-0.4-3.4-0.4-5.2c0-4.1,0.2-8.2,0.6-12.3
		c0.4-3.5,0.6-7,0.6-10.4c0-1.8-0.3-2.8-0.4-3.2c-0.1-0.3-0.3-0.5-0.5-0.6c-0.1-0.1-0.4-0.2-1-0.3h-0.2h-0.2
		c-1.2-0.2-2.6-0.3-4.8-0.3h-15.9l-9.3,43.8h-42.4l1.8-10.7l24.9-119.4h60.7c0.5,0,0.9,0,1.3,0c4.9,0,9.8,0.5,14.4,1.5h0.2
		c5.4,1.3,10.2,3.6,14.1,6.7c4.1,3.3,7.2,7.5,9.4,12.7c2,4.8,3.1,10.7,3.1,17.3c0,4.9-0.8,9.6-2.4,14c-1.6,4.4-4,8.4-6.9,11.9
		c-2.4,2.9-5.3,5.3-8.5,7.4c0.2,0.4,0.4,0.7,0.5,1.1l0.1,0.1c2.1,4.8,3.1,10.1,3.1,15.8c0,3.1-0.1,6.3-0.4,9.8
		c-0.2,2.9-0.4,6.1-0.4,9.7c0,2.3,0.1,4.4,0.3,6.3c0.1,1.5,0.4,2.7,0.8,3.7l0.1,0.2l3.4,11.8H801.3z M795.6,440.14
		c2.8,0,5.4-0.3,7.6-0.8c2.2-0.5,3.9-1.2,5.4-2.1c1.1-0.7,2-1.6,2.8-2.7c0.2-0.3,0.6-1.2,0.6-3.2s-0.3-2.9-0.5-3.2
		c-0.2-0.3-0.3-0.4-0.4-0.5c-0.5-0.3-1.3-0.6-2.6-0.8c-2-0.3-3.9-0.4-5.6-0.4h-16.1l-2.9,13.6h11.7V440.14z"/>
	<path d="M833,510.94h-25.1l-0.1-0.4c-0.3-1.4-0.6-2.7-0.8-3.9c-0.2-1.2-0.3-2.5-0.3-3.8c0-3.8,0.2-7.6,0.6-11.4
		c0.4-3.8,0.6-7.6,0.6-11.3c0-2.6-0.4-4.8-1.1-6.5c-0.7-1.6-1.8-3-3.1-4s-3-1.7-4.9-2c-2-0.4-4.1-0.5-6.5-0.5h-22.8l-9.3,43.8h-25.5
		l0.1-0.6l23.5-112.5h53.9c5-0.1,9.7,0.4,13.9,1.3c4.2,1,7.8,2.7,10.8,5.1s5.3,5.6,6.9,9.4c1.6,3.8,2.4,8.5,2.4,14
		c0,3.8-0.6,7.5-1.9,11c-1.3,3.5-3.1,6.6-5.4,9.3c-2.3,2.7-5.1,5-8.3,6.8c-2.8,1.6-5.9,2.7-9.2,3.3c4,1.6,6.8,4.1,8.3,7.4
		c1.6,3.7,2.4,7.8,2.4,12.4c0,2.5-0.1,5.5-0.4,9.1c-0.3,3.5-0.4,7-0.4,10.4c0,2.5,0.1,4.9,0.3,7.1s0.6,4.1,1.2,5.8L833,510.94z
		 M773.4,448.64h22.2c3.3,0,6.5-0.3,9.5-1s5.6-1.7,7.9-3.1c2.3-1.4,4.1-3.2,5.5-5.3c1.4-2.2,2-4.8,2-7.8c0-2.9-0.5-5.3-1.4-7.1
		c-0.9-1.7-2.2-3.1-3.8-4s-3.5-1.5-5.6-1.8c-2.2-0.3-4.5-0.5-6.8-0.5h-23L773.4,448.64z"/>
	<path fill="#FFFFFF" d="M344.5,409.14c-14.9,0-24-7.5-28.5-12.8h-37.6v-31h16.4c7.2-11.4,18.1-20,30.8-24.3c0-0.4,0-0.8,0-1.2
		c0-10.6,8.6-19.2,19.2-19.2s19.2,8.6,19.2,19.2c0,0.4,0,0.8,0,1.2c12.6,4.4,23.6,13,30.8,24.3h16.4v31H377
		C371,401.04,359.1,409.14,344.5,409.14z"/>
	<path fill="#FFFFFF" d="M203.3,521.84v-29.2c-1.9-2.4-3-5.5-3-8.6s1.1-6.2,3-8.6v-0.7c-1.9-2.4-3-5.5-3-8.6c0-3.2,1.1-6.2,3-8.6
		v-70.4h82.8l3.2,3.7c6.6,7.5,13.8,18.5,20.2,28.2l0.4,0.6c3.1-7.4,6.3-15,8.2-19.4c0.6-1.5,1.1-2.5,1.3-3l3.6-8.5l41.8,9.9
		l-2.4,11.6l-0.1,0.1c0,0.1,0,0.1,0,0.2c-3.6,15.2-7.4,29-11.4,40.9c-11.5,33.5-22.8,48.5-36.9,48.5c-9,0-20.7-8-35-23.7
		c-4.2,14-9.5,28.9-12.9,38l-0.3,0.8l-2.7,7.1h-59.8V521.84z"/>
	<path d="M677,513.44c-16,0-28.5-4.3-37.2-12.9c-8.7-8.5-13.1-21-13.1-37.1c0-9.1,1.4-17.9,4.3-26.1c2.8-8.2,7-15.5,12.3-21.7
		c5.3-6.3,11.9-11.3,19.5-15s16.3-5.5,25.7-5.5c7.6,0,14.5,1,20.7,3.1s11.6,5.2,15.9,9.3c4.3,4.1,7.7,9.2,10.1,15.3
		c2.4,6,3.6,13,3.6,20.9c0,9.2-1.4,18.1-4.1,26.5c-2.7,8.4-6.7,15.9-11.9,22.3s-11.7,11.6-19.3,15.3
		C695.7,511.64,686.9,513.44,677,513.44z M688.6,416.94c-6.2,0-11.6,1.4-16.1,4.2c-4.6,2.8-8.4,6.5-11.3,11s-5.2,9.6-6.6,15.1
		c-1.4,5.5-2.2,11-2.2,16.3c0,3.8,0.5,7.5,1.5,10.9l0,0c1,3.4,2.5,6.4,4.5,9s4.6,4.7,7.7,6.2c3.1,1.5,6.9,2.3,11.3,2.3
		c5.9,0,11.2-1.4,15.6-4.2c4.4-2.8,8.2-6.5,11.2-11s5.3-9.5,6.8-15s2.3-10.9,2.3-16.2c0-3.9-0.4-7.6-1.3-11.1
		c-0.9-3.4-2.3-6.5-4.2-9s-4.5-4.6-7.5-6.1C697,417.74,693.1,416.94,688.6,416.94z"/>
	<path d="M428.9,510.94h-87.4l0.1-0.6l23.5-112.5h86.6l-4.4,21.7h-61l-4.8,23h56.4l-4.3,20.2h-56.4l-5.6,26.5h61.9L428.9,510.94z"/>
	<path d="M486.9,513.44c-15.7,0-27.7-3.3-35.4-9.7c-7.8-6.5-11.7-16.7-11.7-30.5v-0.5h24.4v0.5c-0.2,3.9,0.3,7.2,1.4,9.7l0,0
		c1.1,2.6,2.7,4.6,4.9,6.1c2.1,1.5,4.7,2.6,7.7,3.3c3,0.7,6.3,1,9.8,1c2.5,0,5-0.3,7.4-0.9c2.5-0.6,4.7-1.5,6.7-2.8
		c2-1.2,3.6-2.8,4.9-4.7c1.2-1.9,1.9-4.2,1.9-6.9c0-2.6-0.8-4.7-2.4-6.3c-1.6-1.7-3.8-3.1-6.4-4.4c-2.6-1.2-5.7-2.3-9-3.3
		c-3.4-0.9-6.9-1.9-10.3-3c-3.6-1-7.1-2.3-10.4-3.8c-3.4-1.5-6.5-3.4-9.2-5.7c-2.7-2.3-4.9-5.2-6.6-8.6c-1.6-3.4-2.5-7.6-2.5-12.5
		c0-6.3,1.3-11.8,4-16.3c2.6-4.4,6.1-8.1,10.4-10.9c4.2-2.8,9-4.9,14.4-6.2c5.3-1.3,10.8-2,16.2-2c5.8,0,11.3,0.7,16.4,2
		c5.1,1.3,9.7,3.5,13.5,6.4c3.9,3,7,6.8,9.2,11.4c2.3,4.6,3.4,10.2,3.4,16.8v0.5h-24.4v-0.5c0.1-3-0.3-5.6-1.3-7.7s-2.3-3.8-4.1-5.1
		c-1.8-1.3-3.9-2.3-6.3-2.8c-4.5-1-9.6-1.2-14.8-0.2c-2.3,0.5-4.4,1.2-6.2,2.3c-1.8,1.1-3.3,2.5-4.4,4.2s-1.6,3.8-1.6,6.3
		c0,2.6,0.9,4.7,2.9,6.5s4.4,3.3,7.2,4.5c2.8,1.2,5.8,2.1,8.8,2.8c3,0.7,5.5,1.2,7.4,1.6c4.4,1.2,8.5,2.5,12.2,4s6.9,3.5,9.6,6
		c2.7,2.4,4.8,5.5,6.3,9s2.2,7.8,2.2,12.9c0,6.8-1.4,12.6-4.2,17.4c-2.8,4.8-6.4,8.7-10.8,11.6c-4.4,3-9.4,5.1-14.8,6.4
		C497.7,512.84,492.2,513.44,486.9,513.44z"/>
	<path d="M402.5,373.84h-12.8c-7.4-14.4-21.3-24.3-37-26.9c1.7-1.9,2.7-4.4,2.7-7.1c0-5.9-4.8-10.7-10.7-10.7s-10.7,4.8-10.7,10.7
		c0,2.7,1,5.2,2.7,7.1c-15.7,2.5-29.7,12.5-37,26.9h-12.8v14h33.4c2.2,3.6,9.3,12.8,24.2,12.8c14.3,0,26-9.9,29.1-12.8h28.9V373.84z
		 M344.8,334.24c3.1,0,5.7,2.5,5.7,5.7s-2.5,5.7-5.7,5.7s-5.7-2.5-5.7-5.7S341.7,334.24,344.8,334.24z M344.8,351.24
		c16.2,0,31.2,8.7,39.3,22.5h-78.5C313.6,360.04,328.6,351.24,344.8,351.24z M344.6,395.54c-9.5,0-15.1-4.4-18-7.8h39.1
		C360.9,391.24,353.1,395.54,344.6,395.54z M397.5,382.84h-18.9h-60.7h-26v-4h105.5v4H397.5z"/>
	<path d="M328,398.44l-0.8,1.9c-1.3,3.1-11.8,27.2-15.4,37.4c-2.1-2.8-5.2-7.7-8.1-12.1c-6.3-9.6-14.1-21.7-20.8-29.3l-0.7-0.8
		h-70.4v65.6c-1.8,0.9-3,2.8-3,4.9s1.2,4,3,4.9v8.2c-1.8,0.9-3,2.8-3,4.9s1.2,4,3,4.9v24.4h45.3l0.6-1.6
		c0.5-1.4,12.3-32.8,17.2-53.6c8,10,27.7,33,39,33c9.6,0,19-14,28.8-42.7c6.9-20.4,11.4-41.1,11.5-41.3l0.5-2.4L328,398.44z
		 M216.8,508.54v-19.3c1.9-0.9,3.2-2.8,3.2-5s-1.3-4.1-3.2-5v-8.1c1.9-0.9,3.2-2.8,3.2-5s-1.3-4.1-3.2-5v-42.7l11.5,6.5l0.4,0.4
		c0.2-0.2,4.6-4.6,4.8-10c0.2-5.5-3.3-9.6-3.5-9.8l-0.2-0.3l-12.9,6.1v-10.8h29.2c-1.5,8.7-6.3,37.5-9.4,51.9
		c-3.6,16.7-12,44.4-16.9,56.1L216.8,508.54L216.8,508.54z M262.7,443.64l-33.4,64.9h-3.4l33.4-64.9l-4.3-8l13-8.9l-6.1-26.2h3.1
		l6.4,27.5l-12.5,8.6L262.7,443.64z"/>
	<path d="M545.8,397.84l-4.6,21.7h35.2l-19.2,91.4H583l19.2-91.4h33.6l4.6-21.7H545.8z"/>
</g>
</svg>
